<svg width="36" height="36" viewBox="0 0 36 36" fill="none" xmlns="http://www.w3.org/2000/svg">
<path fill-rule="evenodd" clip-rule="evenodd" d="M18 18C14.2084 18 11.125 14.9166 11.125 11.125C11.125 7.33344 14.2084 4.25 18 4.25C21.7916 4.25 24.875 7.33344 24.875 11.125C24.875 14.9166 21.7916 18 18 18ZM24.4591 19.1567C26.8069 17.2677 28.3125 14.3734 28.3125 11.125C28.3125 5.42906 23.6959 0.8125 18 0.8125C12.3041 0.8125 7.6875 5.42906 7.6875 11.125C7.6875 14.3734 9.19312 17.2677 11.5409 19.1567C5.25206 21.5199 0.8125 27.3586 0.8125 35.1875H4.25C4.25 26.5938 10.4186 21.4375 18 21.4375C25.5814 21.4375 31.75 26.5938 31.75 35.1875H35.1875C35.1875 27.3586 30.7479 21.5199 24.4591 19.1567Z" fill="currentColor"/>
</svg>
