<svg width="50" height="51" viewBox="0 0 50 51" fill="none" xmlns="http://www.w3.org/2000/svg">
<path d="M24.9996 0.0507812C24.773 0.0507812 24.5474 0.125847 24.3547 0.278189L0.396742 19.8119C-0.0511672 20.1819 -0.134418 20.8655 0.219743 21.3442C0.573903 21.8122 1.22827 21.8991 1.6866 21.5291L3.12497 20.356V48.9626C3.12497 49.5611 3.59371 50.0508 4.16661 50.0508H18.7497V30.4639H31.2495V50.0508H45.8326C46.4055 50.0508 46.8742 49.5611 46.8742 48.9626V20.356L48.3126 21.5291C48.5105 21.6815 48.7283 21.7587 48.9575 21.7587C49.27 21.7587 49.5711 21.6163 49.7794 21.3442C50.1336 20.8655 50.0503 20.1819 49.6024 19.8119L25.6445 0.278189C25.4518 0.125847 25.2261 0.0507812 24.9996 0.0507812ZM35.4161 4.34815V5.49157L41.666 10.5838V4.34815H35.4161Z" fill="black"/>
</svg>
