<svg width="50" height="50" viewBox="0 0 50 50" fill="none" xmlns="http://www.w3.org/2000/svg">
<path d="M42.9087 38.2418C41.6847 38.4372 40.438 38.5349 39.1686 38.5349C35.0432 38.5349 31.2238 37.5578 27.7104 35.6035C24.197 33.6492 21.4203 30.9892 19.3803 27.6235C17.3403 24.2578 16.3203 20.599 16.3203 16.647C16.3203 12.4778 17.4989 8.60186 19.8563 5.01901C15.3002 6.32186 11.5772 8.80814 8.68714 12.4778C5.79709 16.1475 4.35207 20.3167 4.35207 24.9852C4.35207 27.8081 4.93008 30.5061 6.0861 33.0792C7.24211 35.6523 8.78914 37.8672 10.7272 39.7237C12.6652 41.5803 14.9772 43.0623 17.6633 44.1697C20.3493 45.2772 23.1657 45.8309 26.1124 45.8309C29.3765 45.8309 32.4762 45.1632 35.4116 43.8277C38.3469 42.4923 40.846 40.6303 42.9087 38.2418ZM49.8108 35.4732C47.6801 39.8812 44.467 43.4043 40.1716 46.0426C35.8762 48.6809 31.1898 50 26.1124 50C22.5764 50 19.199 49.3377 15.9803 48.0131C12.7615 46.6886 9.98482 44.908 7.65012 42.6715C5.31542 40.4349 3.45672 37.7749 2.07403 34.6915C0.691344 31.6081 0 28.3726 0 24.9852C0 21.663 0.651677 18.4873 1.95503 15.4581C3.25838 12.429 5.02641 9.807 7.25911 7.59215C9.49182 5.3773 12.1609 3.5913 15.2662 2.23417C18.3716 0.877027 21.6583 0.133315 25.1264 0.00302989C26.1237 -0.0403985 26.8151 0.383028 27.2004 1.27331C27.6084 2.16359 27.4384 2.94531 26.6904 3.61845C24.7411 5.31215 23.2507 7.28272 22.2193 9.53014C21.188 11.7776 20.6723 14.1498 20.6723 16.647C20.6723 19.8607 21.4997 22.8247 23.1544 25.5389C24.8091 28.2532 27.0531 30.4029 29.8865 31.9881C32.7198 33.5732 35.8139 34.3658 39.1686 34.3658C41.8433 34.3658 44.4274 33.8121 46.9207 32.7046C47.8501 32.3138 48.6661 32.4549 49.3688 33.1281C49.6861 33.4321 49.8845 33.8012 49.9638 34.2355C50.0431 34.6698 49.9921 35.0823 49.8108 35.4732Z" fill="black"/>
</svg>
