<svg width="800" height="800" viewBox="0 0 800 800" fill="none" xmlns="http://www.w3.org/2000/svg">
<path fill-rule="evenodd" clip-rule="evenodd" d="M400 400C339.335 400 290 350.665 290 290C290 229.335 339.335 180 400 180C460.665 180 510 229.335 510 290C510 350.665 460.665 400 400 400ZM503.345 418.507C540.91 388.284 565 341.975 565 290C565 198.865 491.135 125 400 125C308.865 125 235 198.865 235 290C235 341.975 259.09 388.284 296.655 418.507C196.033 456.319 125 549.738 125 675H180C180 537.5 278.698 455 400 455C521.302 455 620 537.5 620 675H675C675 549.738 603.967 456.319 503.345 418.507Z" fill="black"/>
<circle cx="400" cy="400" r="371.5" stroke="currentColor" stroke-width="57"/>
</svg>
