<svg width="50" height="50" viewBox="0 0 50 50" fill="none" xmlns="http://www.w3.org/2000/svg">
<path d="M24.9701 0.0053714C24.9191 0.0146617 24.8681 0.0285953 24.8218 0.04253C24.2706 0.167941 23.8815 0.664938 23.8954 1.23161V8.36607C23.8908 8.79339 24.1131 9.19285 24.4837 9.41115C24.8542 9.62482 25.3082 9.62482 25.6788 9.41115C26.0493 9.19285 26.2717 8.79339 26.2671 8.36607V1.23161C26.281 0.88789 26.142 0.558106 25.8965 0.325864C25.6463 0.0889786 25.3082 -0.0271427 24.9701 0.0053714ZM8.07188 6.9912C7.62719 7.07016 7.27052 7.3953 7.14545 7.82727C7.02038 8.26388 7.15008 8.72836 7.47896 9.03492L12.5188 14.0885C12.806 14.4415 13.2645 14.6041 13.7092 14.5019C14.1493 14.3997 14.4967 14.0513 14.5986 13.6101C14.7005 13.1642 14.5384 12.7043 14.1863 12.4164L9.14655 7.36278C8.90104 7.09803 8.54436 6.96333 8.18305 6.9912C8.146 6.9912 8.10894 6.9912 8.07188 6.9912ZM41.72 6.9912C41.4513 7.02835 41.2012 7.16305 41.0159 7.36278L35.9761 12.4164C35.624 12.7043 35.4619 13.1642 35.5638 13.6101C35.6657 14.0513 36.0132 14.3997 36.4532 14.5019C36.8979 14.6041 37.3565 14.4415 37.6437 14.0885L42.6835 9.03492C43.0541 8.68191 43.1606 8.12918 42.9429 7.6647C42.7205 7.19557 42.2295 6.92617 41.72 6.9912ZM24.9701 13.1224C24.933 13.1317 24.8959 13.1456 24.8589 13.1595C24.7848 13.1642 24.7106 13.1781 24.6365 13.1967C24.6226 13.2106 24.6134 13.2199 24.5995 13.2338C18.309 13.5032 13.2229 18.6404 13.2229 25.0131C13.2229 31.5577 18.5545 36.9039 25.0812 36.9039C31.608 36.9039 36.9396 31.5577 36.9396 25.0131C36.9396 18.6637 31.8952 13.5451 25.6371 13.2338C25.5954 13.2338 25.5676 13.1967 25.5259 13.1967C25.4055 13.1502 25.2804 13.127 25.1553 13.1224C25.1322 13.1224 25.1044 13.1224 25.0812 13.1224C25.0442 13.1224 25.0071 13.1224 24.9701 13.1224ZM25.0071 15.5005C25.0303 15.5005 25.0581 15.5005 25.0812 15.5005C25.1183 15.5005 25.1553 15.5005 25.1924 15.5005C30.3804 15.5609 34.5679 19.797 34.5679 25.0131C34.5679 30.2711 30.3248 34.5257 25.0812 34.5257C19.8422 34.5257 15.5945 30.2711 15.5945 25.0131C15.5945 19.7831 19.8005 15.5423 25.0071 15.5005ZM1.03098 23.8241C0.37784 23.917 -0.0807449 24.5254 0.0118985 25.1804C0.104542 25.8353 0.711357 26.2951 1.36449 26.2022H8.47951C8.90567 26.2069 9.30404 25.9839 9.52175 25.6123C9.73483 25.2407 9.73483 24.7855 9.52175 24.414C9.30404 24.0424 8.90567 23.8194 8.47951 23.8241H1.36449C1.32744 23.8241 1.29038 23.8241 1.25332 23.8241C1.21626 23.8241 1.17921 23.8241 1.14215 23.8241C1.10509 23.8241 1.06803 23.8241 1.03098 23.8241ZM41.3494 23.8241C40.6963 23.917 40.2377 24.5254 40.3303 25.1804C40.423 25.8353 41.0298 26.2951 41.6829 26.2022H48.798C49.2241 26.2069 49.6225 25.9839 49.8402 25.6123C50.0533 25.2407 50.0533 24.7855 49.8402 24.414C49.6225 24.0424 49.2241 23.8194 48.798 23.8241H41.6829C41.6459 23.8241 41.6088 23.8241 41.5718 23.8241C41.5347 23.8241 41.4976 23.8241 41.4606 23.8241C41.4235 23.8241 41.3865 23.8241 41.3494 23.8241ZM13.2229 35.5662C12.9542 35.6034 12.7041 35.7381 12.5188 35.9378L7.47896 40.9914C7.12692 41.2793 6.96479 41.7392 7.0667 42.1851C7.16861 42.6263 7.51602 42.9747 7.95608 43.0769C8.40077 43.1791 8.85935 43.0165 9.14655 42.6635L14.1863 37.6099C14.5384 37.2708 14.6449 36.746 14.455 36.2954C14.2697 35.8449 13.8204 35.5569 13.334 35.5662C13.297 35.5662 13.2599 35.5662 13.2229 35.5662ZM36.569 35.5662C36.1243 35.6452 35.7676 35.9703 35.6426 36.4023C35.5175 36.8389 35.6472 37.3034 35.9761 37.6099L41.0159 42.6635C41.3031 43.0165 41.7617 43.1791 42.2064 43.0769C42.6464 42.9747 42.9938 42.6263 43.0957 42.1851C43.1977 41.7392 43.0355 41.2793 42.6835 40.9914L37.6437 35.9378C37.4213 35.7009 37.1156 35.5708 36.7914 35.5662C36.7543 35.5662 36.7172 35.5662 36.6802 35.5662C36.6431 35.5662 36.6061 35.5662 36.569 35.5662ZM24.9701 40.434C24.9191 40.4433 24.8681 40.4572 24.8218 40.4711C24.2706 40.5965 23.8815 41.0935 23.8954 41.6602V48.7947C23.8908 49.222 24.1131 49.6214 24.4837 49.8398C24.8542 50.0534 25.3082 50.0534 25.6788 49.8398C26.0493 49.6214 26.2717 49.222 26.2671 48.7947V41.6602C26.281 41.3165 26.142 40.9867 25.8965 40.7545C25.6463 40.5176 25.3082 40.4015 24.9701 40.434Z" fill="white"/>
</svg>
