<svg width="47" height="38" viewBox="0 0 47 38" fill="none" xmlns="http://www.w3.org/2000/svg">
<path d="M31.5 27L23.5 19L15.5 27" stroke="black" stroke-opacity="0.4" stroke-width="2" stroke-linecap="round" stroke-linejoin="round"/>
<path d="M23.5 19V37" stroke="black" stroke-opacity="0.4" stroke-width="2" stroke-linecap="round" stroke-linejoin="round"/>
<path d="M40.28 31.78C42.2307 30.7165 43.7717 29.0338 44.6598 26.9973C45.5478 24.9607 45.7324 22.6865 45.1844 20.5334C44.6364 18.3803 43.387 16.471 41.6334 15.1069C39.8797 13.7428 37.7217 13.0015 35.5 13H32.98C32.3746 10.6585 31.2463 8.48467 29.6799 6.64199C28.1135 4.7993 26.1497 3.3357 23.9362 2.36121C21.7227 1.38673 19.3171 0.926716 16.9002 1.01576C14.4834 1.10481 12.1181 1.7406 9.98237 2.87533C7.84658 4.01006 5.99583 5.6142 4.56926 7.56716C3.14268 9.52012 2.17739 11.7711 1.74597 14.1508C1.31455 16.5305 1.42822 18.9771 2.07844 21.3065C2.72865 23.636 3.8985 25.7877 5.50001 27.6" stroke="black" stroke-opacity="0.4" stroke-width="2" stroke-linecap="round" stroke-linejoin="round"/>
<path d="M31.5 27L23.5 19L15.5 27" stroke="black" stroke-opacity="0.4" stroke-width="2" stroke-linecap="round" stroke-linejoin="round"/>
</svg>
